<svg width="565" height="159" viewBox="0 0 565 159" fill="none" xmlns="http://www.w3.org/2000/svg">
<path d="M560.607 1.46484e-06H188.356H167.585C167.585 1.46484e-06 167.585 -2.19727e-05 167.585 0.000978027C167.585 6.25998 162.511 11.333 156.251 11.333C149.992 11.333 144.918 6.25998 144.918 0.000978027C144.918 0.000978027 144.918 0.00100146 144.918 1.46484e-06H3.896C1.743 1.46484e-06 0 1.744 0 3.896V9.336V14.802V27.245V31.509V43.951V48.215V60.658V64.923V77.365V81.631V94.074V98.336V110.779V115.044V127.486V131.752V144.194V154.73C0 156.88 1.743 158.625 3.896 158.625H144.917C144.917 152.364 149.992 147.292 156.25 147.292C162.51 147.292 167.584 152.364 167.584 158.625H188.355H560.606C562.758 158.625 564.501 156.881 564.501 154.73V144.194V131.752V127.486V115.044V110.779V98.336V94.074V81.631V77.365V64.923V60.658V48.215V43.951V31.509V27.245V14.802V9.336V3.896C564.502 1.744 562.76 1.46484e-06 560.607 1.46484e-06ZM156.25 140.778C153.673 140.778 151.583 138.688 151.583 136.112C151.583 133.534 153.672 131.445 156.25 131.445C158.828 131.445 160.917 133.534 160.917 136.112C160.917 138.689 158.828 140.778 156.25 140.778ZM156.25 127.933C153.673 127.933 151.583 125.844 151.583 123.266C151.583 120.689 153.672 118.6 156.25 118.6C158.828 118.6 160.917 120.689 160.917 123.266C160.917 125.844 158.828 127.933 156.25 127.933ZM156.25 115.087C153.673 115.087 151.583 112.998 151.583 110.421C151.583 107.843 153.672 105.754 156.25 105.754C158.828 105.754 160.917 107.843 160.917 110.421C160.917 112.998 158.828 115.087 156.25 115.087ZM156.25 102.241C153.673 102.241 151.583 100.152 151.583 97.575C151.583 94.997 153.672 92.908 156.25 92.908C158.828 92.908 160.917 94.997 160.917 97.575C160.917 100.152 158.828 102.241 156.25 102.241ZM156.25 89.397C153.673 89.397 151.583 87.307 151.583 84.731C151.583 82.153 153.672 80.064 156.25 80.064C158.828 80.064 160.917 82.153 160.917 84.731C160.917 87.307 158.828 89.397 156.25 89.397ZM156.25 76.551C153.673 76.551 151.583 74.462 151.583 71.884C151.583 69.306 153.672 67.217 156.25 67.217C158.828 67.217 160.917 69.306 160.917 71.884C160.917 74.462 158.828 76.551 156.25 76.551ZM156.25 63.706C153.673 63.706 151.583 61.617 151.583 59.039C151.583 56.461 153.672 54.372 156.25 54.372C158.828 54.372 160.917 56.461 160.917 59.039C160.917 61.616 158.828 63.706 156.25 63.706ZM156.25 50.86C153.673 50.86 151.583 48.771 151.583 46.193C151.583 43.615 153.672 41.526 156.25 41.526C158.828 41.526 160.917 43.615 160.917 46.193C160.917 48.771 158.828 50.86 156.25 50.86ZM156.25 38.015C153.673 38.015 151.583 35.926 151.583 33.349C151.583 30.771 153.672 28.682 156.25 28.682C158.828 28.682 160.917 30.771 160.917 33.349C160.917 35.926 158.828 38.015 156.25 38.015ZM156.25 25.169C153.673 25.169 151.583 23.08 151.583 20.502C151.583 17.924 153.672 15.835 156.25 15.835C158.828 15.835 160.917 17.924 160.917 20.502C160.917 23.08 158.828 25.169 156.25 25.169Z" fill="#F4F4F1"/>
</svg>
