<svg width="82" height="100" viewBox="0 0 82 100" fill="none" xmlns="http://www.w3.org/2000/svg">
<path d="M81.0574 81.8302C80.829 81.0966 80.1999 80.5595 79.4399 80.4487C73.995 79.655 68.1768 76.0786 63.057 70.3782C58.2421 65.017 54.423 58.2928 52.2647 51.3887L58.0143 29.754L60.8157 31.1269C61.8054 31.6119 63.0011 31.2027 63.4861 30.213C63.9713 29.2231 63.5619 28.0277 62.5723 27.5425L42.0184 17.4695V13.7352C44.9158 12.8735 47.0349 10.1856 47.0349 7.01229C47.0346 3.1458 43.8888 0 40.0224 0C36.1559 0 33.0101 3.1458 33.0101 7.01229C33.0101 8.11463 33.9035 9.00807 35.0058 9.00807C36.1082 9.00807 37.0016 8.11463 37.0016 7.01229C37.0016 5.34648 38.3565 3.99156 40.0224 3.99156C41.6882 3.99156 43.0431 5.34648 43.0431 7.01229C43.0431 8.67788 41.6879 10.033 40.0224 10.033C38.92 10.033 38.0266 10.9265 38.0266 12.0288V17.4695L21.9756 25.3358C21.9545 25.3455 21.9339 25.356 21.9133 25.3664L17.4727 27.5425C16.483 28.0277 16.0736 29.2231 16.5588 30.213C17.044 31.2025 18.2395 31.6116 19.2292 31.1269L21.5203 30.0041L27.2256 51.4728C23.9117 66.3407 16.6548 78.5223 8.66662 82.5819C7.68403 83.0813 7.29219 84.2828 7.79158 85.2654C8.29074 86.248 9.49176 86.64 10.475 86.1404C15.1114 83.7843 19.5279 79.2059 23.2469 72.9013C26.5468 67.3066 29.1695 60.6013 30.8726 53.4231H35.2968C36.3991 53.4231 37.2926 52.5297 37.2926 51.4273C37.2926 50.325 36.3991 49.4315 35.2968 49.4315H30.8131L25.1744 28.213L29.2757 26.2033C30.5586 30.9348 34.8905 34.4255 40.0224 34.4255C45.1544 34.4255 49.4864 30.9351 50.7688 26.2033L54.3601 27.9633L48.6546 49.4318H46.5989C45.4966 49.4318 44.6031 50.3252 44.6031 51.4275C44.6031 52.5299 45.4966 53.4233 46.5989 53.4233H48.7264C51.0943 60.5667 55.0936 67.4856 60.0871 73.0452C64.6845 78.1642 69.6979 81.6885 74.782 83.4093C71.5883 85.6845 67.8238 87.4718 63.6888 88.6655C56.2773 81.4117 50.1616 72.0182 47.0158 62.6323C46.6656 61.5874 45.5347 61.0235 44.4894 61.3743C43.4442 61.7244 42.881 62.8558 43.2313 63.901C45.5901 70.9394 49.4985 78.0389 54.5341 84.4313C59.4449 90.6659 65.1887 95.9432 71.1446 99.6929C71.4748 99.9009 71.8424 100 72.2061 100C72.8692 100 73.5176 99.6698 73.897 99.0673C74.4842 98.1346 74.2041 96.9023 73.2714 96.3151C71.1621 94.9873 69.0947 93.46 67.0954 91.769C72.2726 89.9648 76.8621 87.2745 80.5103 83.8858C81.0729 83.3629 81.2858 82.5635 81.0574 81.8302ZM40.0224 30.4339C36.4594 30.4339 33.4975 27.811 32.9662 24.3949L40.0224 20.9366L47.0781 24.3947C46.547 27.811 43.585 30.4339 40.0224 30.4339ZM54.5924 92.3018C54.6197 93.4037 53.7485 94.3191 52.6466 94.3462C51.9032 94.3648 51.1539 94.3661 50.4195 94.3508C42.8018 94.1952 35.5624 92.3207 29.413 88.9203C24.2887 93.1035 17.8106 95.4587 11.1057 95.4587C7.853 95.4587 4.54843 94.9048 1.31748 93.7357C0.281005 93.3609 -0.255417 92.2165 0.119569 91.1802C0.494554 90.1439 1.6388 89.6071 2.67528 89.9825C15.5669 94.6458 29.8501 87.9524 34.5144 75.0607C34.8894 74.0242 36.0339 73.4876 37.0701 73.863C38.1066 74.2378 38.6428 75.3822 38.2678 76.4185C36.9426 80.0814 34.9486 83.3128 32.4727 86.0253C37.8086 88.7349 43.9937 90.2269 50.5013 90.3602C51.1761 90.3741 51.8644 90.3726 52.5479 90.3557C53.6442 90.3342 54.5654 91.2001 54.5924 92.3018Z" fill="#333333"/>
</svg>
