<svg width="18" height="16" viewBox="0 0 18 16" fill="none" xmlns="http://www.w3.org/2000/svg">
<path d="M15.6381 2.29973C14.8042 1.46588 13.7003 1.01013 12.5221 1.01013C11.3439 1.01013 10.2366 1.46925 9.40272 2.30311L8.96722 2.73861L8.52498 2.29636C7.69112 1.4625 6.58044 1 5.40224 1C4.22741 1 3.12011 1.45913 2.28963 2.28961C1.45577 3.12346 0.996643 4.23077 1.00002 5.40897C1.00002 6.58717 1.46252 7.6911 2.29638 8.52496L8.63638 14.865C8.72416 14.9527 8.84231 15 8.9571 15C9.07188 15 9.19004 14.9561 9.27781 14.8683L15.6313 8.53846C16.4652 7.70461 16.9243 6.5973 16.9243 5.4191C16.9277 4.2409 16.4719 3.13359 15.6381 2.29973ZM14.9899 7.89366L8.9571 13.9028L2.9378 7.88353C2.27612 7.22185 1.91152 6.3441 1.91152 5.40897C1.91152 4.47384 2.27275 3.59609 2.93443 2.93779C3.59274 2.27948 4.47048 1.91488 5.40224 1.91488C6.33737 1.91488 7.21849 2.27948 7.88017 2.94116L8.64313 3.70412C8.82206 3.88305 9.10901 3.88305 9.28794 3.70412L10.0441 2.94791C10.7058 2.28623 11.5869 1.92163 12.5187 1.92163C13.4505 1.92163 14.3282 2.28623 14.9899 2.94454C15.6516 3.60622 16.0128 4.48396 16.0128 5.4191C16.0162 6.35423 15.6516 7.23197 14.9899 7.89366Z" fill="#627A89" stroke="#627A89" stroke-width="0.5"/>
</svg>
