<svg width="101" height="100" viewBox="0 0 101 100" fill="none" xmlns="http://www.w3.org/2000/svg">
<path d="M100.453 35.8354C98.4105 31.9076 95.0876 28.92 91.0141 27.3021C90.5972 27.1356 90.1741 26.9804 89.746 26.8451C85.0927 25.3766 80.1461 25.8077 75.8176 28.0594C75.7983 28.0696 75.7788 28.0801 75.7599 28.0911L55.0017 40.0248L34.4209 18.8462C33.9391 18.3504 33.1891 18.2297 32.5755 18.5482L23.6853 23.1726C22.9295 23.5656 22.6246 24.527 23.0187 25.2843L36.2834 50.7853L15.9524 62.4735L8.62015 54.8651C8.13855 54.3654 7.38519 54.2421 6.77027 54.5626L0.843547 57.6453C0.0763778 58.0444 -0.222009 58.9897 0.176958 59.757L8.02969 74.8537C9.4954 77.6717 12.3611 79.2993 15.3448 79.2991C16.4995 79.2991 17.6726 79.0552 18.788 78.5416L44.6014 66.7758L58.4721 93.4417C58.8656 94.198 59.826 94.5025 60.5839 94.1083L69.474 89.4839C70.0873 89.1651 70.4189 88.4813 70.2897 87.8019L64.5403 57.6129L79.7943 50.6883C80.5818 50.3309 80.9303 49.4026 80.5727 48.6153C80.2153 47.8277 79.2869 47.479 78.4998 47.8369L62.1244 55.2706C61.4663 55.5694 61.0983 56.2793 61.2333 56.9891L66.9952 87.2432L60.5277 90.6073L46.6934 64.0118C46.3091 63.2726 45.4131 62.9642 44.6548 63.3095L17.4838 75.6944C15.0015 76.8369 12.0691 75.8327 10.8081 73.4085L3.67773 59.701L7.17733 57.8805L14.5459 65.5264C15.0443 66.0437 15.831 66.1549 16.4536 65.7972L77.2916 30.8222C79.629 29.6126 82.1396 29.0754 84.6022 29.1371L79.6117 31.7331C78.8445 32.1323 78.5461 33.0775 78.9451 33.8449L82.028 39.7716C82.4214 40.5279 83.3818 40.8324 84.1397 40.4382L95.7309 34.4089C96.4716 35.2719 97.1286 36.2288 97.6754 37.2802C98.0937 38.0844 97.7407 39.1021 96.9172 39.476L83.8331 45.4157C83.0456 45.7731 82.6971 46.7014 83.0547 47.4887C83.412 48.2761 84.3399 48.6244 85.1276 48.2671L98.2117 42.3273C100.644 41.2239 101.688 38.2083 100.453 35.8354ZM39.0006 49.2234L26.5194 25.2285L32.9869 21.8644L52.2005 41.6351L39.0006 49.2234ZM84.0837 36.9376L82.4461 33.7891L89.5466 30.0956C90.4361 30.4277 91.2957 30.8423 92.1116 31.3369C92.5216 31.5866 92.9202 31.8542 93.3053 32.1409L84.0837 36.9376Z" fill="#333333"/>
<path d="M78.313 37.9386C77.9143 37.1718 76.9686 36.8731 76.2016 37.2722L73.2385 38.8139C72.5407 39.1769 72.2159 40.0323 72.4999 40.7663C72.8318 41.6244 73.8654 42.0176 74.6835 41.592L77.6466 40.0504C78.4136 39.6512 78.712 38.7058 78.313 37.9386Z" fill="#333333"/>
<path d="M69.4229 42.563C69.0241 41.7959 68.0785 41.4973 67.3115 41.8967L64.3483 43.4383C63.6506 43.8014 63.3258 44.6567 63.6098 45.3907C63.9417 46.2488 64.9753 46.6421 65.7933 46.2165L68.7565 44.6748C69.5237 44.2755 69.8219 43.3302 69.4229 42.563Z" fill="#333333"/>
<path d="M60.5328 47.1874C60.1341 46.4205 59.1884 46.1219 58.4214 46.521L55.4583 48.0623C54.7605 48.4254 54.4357 49.2807 54.7197 50.0147C55.0516 50.8728 56.0852 51.2661 56.9033 50.8405L59.8664 49.2992C60.6334 48.9001 60.9318 47.9548 60.5328 47.1874Z" fill="#333333"/>
<path d="M51.6428 51.8118C51.244 51.045 50.2983 50.7465 49.5314 51.1454L46.568 52.6867C45.8703 53.0497 45.5454 53.9051 45.8294 54.6391C46.1614 55.4972 47.195 55.8904 48.013 55.4649L50.9762 53.9236C51.7435 53.5242 52.0417 52.579 51.6428 51.8118Z" fill="#333333"/>
<path d="M42.7527 56.436C42.3537 55.669 41.4085 55.3704 40.6413 55.7696L37.6779 57.3108C36.9802 57.6739 36.6554 58.5292 36.9394 59.2633C37.2713 60.1213 38.3049 60.5146 39.1229 60.089L42.0861 58.5478C42.8533 58.1486 43.1517 57.2033 42.7527 56.436Z" fill="#333333"/>
<path d="M33.8626 61.0602C33.4638 60.2933 32.5181 59.9947 31.7512 60.3938L28.7878 61.9355C28.09 62.2986 27.7652 63.1539 28.0492 63.8879C28.3811 64.746 29.4147 65.1392 30.2328 64.7137L33.196 63.172C33.9633 62.7729 34.2615 61.8274 33.8626 61.0602Z" fill="#333333"/>
<path d="M24.9725 65.6848C24.5735 64.9178 23.6283 64.6192 22.8611 65.0184L19.8975 66.56C19.1998 66.9231 18.875 67.7784 19.159 68.5124C19.4909 69.3705 20.5245 69.7638 21.3425 69.3382L24.3061 67.7965C25.0731 67.3972 25.3715 66.4519 24.9725 65.6848Z" fill="#333333"/>
<path d="M41.8025 90.1878H41.1722C40.2508 88.1944 38.227 86.8476 35.957 86.8476C35.389 86.8476 34.8343 86.9294 34.3041 87.089C33.2122 84.932 30.9876 83.5073 28.4413 83.5073C25.9355 83.5073 23.7046 84.9267 22.599 87.0635C22.0559 86.9209 21.4936 86.8476 20.9258 86.8476C17.2998 86.8476 14.3497 89.7977 14.3497 93.4237C14.3497 97.0497 17.2998 99.9999 20.9258 99.9999H41.8027C44.5079 99.9999 46.7088 97.799 46.7088 95.0937C46.7086 92.3887 44.5077 90.1878 41.8025 90.1878ZM41.8025 96.8685H20.9256C19.0262 96.8685 17.4809 95.3231 17.4809 93.4237C17.4809 91.5243 19.0262 89.979 20.9256 89.979C21.5567 89.979 22.1734 90.1507 22.7089 90.4757C23.6275 91.0333 24.8577 90.4836 25.0589 89.4313C25.3683 87.8131 26.7906 86.6387 28.4409 86.6387C30.148 86.6387 31.579 87.8601 31.8433 89.5429C32.0251 90.6998 33.4289 91.2565 34.3544 90.5337C34.8185 90.1708 35.3727 89.9792 35.9568 89.9792C37.1932 89.9792 38.2686 90.8566 38.5141 92.0651C38.6624 92.795 39.304 93.3194 40.0486 93.3194H41.8025C42.7811 93.3194 43.577 94.1154 43.577 95.0939C43.5768 96.0727 42.7811 96.8685 41.8025 96.8685Z" fill="#333333"/>
<path d="M81.8862 6.68048H81.2559C80.3345 4.68703 78.3107 3.34024 76.0407 3.34024C75.4727 3.34024 74.918 3.42209 74.3878 3.58163C73.2955 1.42488 71.0711 5.64239e-09 68.5248 5.64239e-09C66.019 5.64239e-09 63.7881 1.41936 62.6825 3.55619C62.1394 3.41361 61.5771 3.34024 61.0093 3.34024C57.3833 3.34024 54.4332 6.29039 54.4332 9.9164C54.4332 13.5424 57.3833 16.4926 61.0093 16.4926H81.8862C84.5914 16.4926 86.7923 14.2916 86.7923 11.5864C86.7921 8.88141 84.5914 6.68048 81.8862 6.68048ZM81.8858 13.3616H61.0091C59.1097 13.3616 57.5644 11.8162 57.5644 9.91679C57.5644 8.01741 59.1099 6.47163 61.0093 6.47163C61.6404 6.47163 62.2571 6.64341 62.7925 6.96842C63.7114 7.52575 64.9414 6.9765 65.1426 5.92396C65.452 4.30581 66.8743 3.13139 68.5246 3.13139C70.2317 3.13139 71.6625 4.35275 71.927 6.03559C72.1088 7.19226 73.5128 7.74939 74.4381 7.0264C74.9022 6.66352 75.4564 6.47183 76.0405 6.47183C77.2769 6.47183 78.3523 7.34924 78.5978 8.55778C78.7461 9.28767 79.3877 9.81207 80.1323 9.81207H81.8862C82.8648 9.81207 83.6607 10.608 83.6607 11.5866C83.6607 12.5652 82.8644 13.3616 81.8858 13.3616Z" fill="#333333"/>
</svg>
