<svg width="18" height="19" viewBox="0 0 18 19" fill="none" xmlns="http://www.w3.org/2000/svg">
<path d="M3.66529 3.76775C6.57184 1.23034 10.9216 1.19154 13.8684 3.50781L11.5327 3.59316C11.2312 3.6048 10.998 3.84535 11.0101 4.13634C11.0221 4.41957 11.2633 4.64072 11.5528 4.64072C11.5608 4.64072 11.5648 4.64072 11.5729 4.64072L15.1588 4.51268C15.4523 4.50104 15.6815 4.27213 15.6815 3.98891V3.95011C15.6815 3.94235 15.6815 3.93847 15.6815 3.93071V3.92683L15.5488 0.504811C15.5367 0.213823 15.2835 -0.0112076 14.986 0.000431899C14.6845 0.0120714 14.4513 0.252621 14.4634 0.543609L14.5478 2.68916C13.0885 1.53685 11.2915 0.869516 9.36985 0.7764C6.98994 0.660004 4.70248 1.44761 2.93765 2.99179C0.509492 5.11406 -0.51966 8.34208 0.252204 11.4149C0.312506 11.6555 0.533613 11.8145 0.778841 11.8145C0.823062 11.8145 0.863263 11.8107 0.907485 11.799C1.19693 11.7292 1.37784 11.446 1.30548 11.1666C0.630096 8.46624 1.5306 5.63008 3.66529 3.76775Z" fill="#627A89"/>
<path d="M17.7478 7.58554C17.6755 7.30619 17.382 7.1316 17.0926 7.20143C16.8031 7.27127 16.6222 7.5545 16.6946 7.83385C17.374 10.5342 16.4694 13.3704 14.3348 15.2327C12.8352 16.5402 10.9538 17.1843 9.08045 17.1843C7.29149 17.1843 5.50655 16.5984 4.06735 15.4422L6.43118 15.2366C6.72867 15.2094 6.94978 14.9572 6.92164 14.6662C6.8935 14.3753 6.63219 14.1657 6.33068 14.1929L2.75679 14.5033C2.4593 14.5304 2.23819 14.7826 2.26633 15.0736L2.58794 18.5228C2.61206 18.7944 2.84925 19 3.12664 19C3.14272 19 3.1588 19 3.17488 18.9961C3.47237 18.969 3.69348 18.7168 3.66534 18.4258L3.47237 16.3268C4.93168 17.4675 6.72063 18.1309 8.63019 18.2241C8.78296 18.2318 8.93572 18.2357 9.08447 18.2357C11.2996 18.2357 13.4061 17.452 15.0624 16.0087C17.4906 13.8864 18.5197 10.6623 17.7478 7.58554Z" fill="#627A89"/>
</svg>
