<svg width="14" height="14" viewBox="0 0 14 14" fill="none" xmlns="http://www.w3.org/2000/svg">
<path d="M10.6919 8.9942C9.88663 8.9942 9.1686 9.37793 8.70931 9.97095L4.86338 7.8227C4.9535 7.56398 5.00291 7.28489 5.00291 6.99711C5.00291 6.70641 4.9535 6.43024 4.86046 6.16861L8.70348 4.02325C9.15988 4.61918 9.88081 5.00582 10.6889 5.00582C12.0668 5.00582 13.1918 3.88373 13.1918 2.5029C13.1918 1.12209 12.0698 -1.32161e-07 10.6889 -1.32161e-07C9.30813 -1.32161e-07 8.18604 1.12209 8.18604 2.5029C8.18604 2.7936 8.23545 3.07266 8.32849 3.3314L4.48836 5.47676C4.03196 4.87792 3.31104 4.49419 2.5029 4.49419C1.125 4.49419 -1.45264e-08 5.61628 -1.45264e-08 6.99711C-1.45264e-08 8.37792 1.125 9.50001 2.50581 9.50001C3.31395 9.50001 4.03489 9.11338 4.49419 8.51454L8.3372 10.6628C8.24419 10.9244 8.19187 11.2064 8.19187 11.4971C8.19187 12.875 9.31396 14 10.6948 14C12.0756 14 13.1977 12.8779 13.1977 11.4971C13.1977 10.1163 12.0727 8.9942 10.6919 8.9942ZM10.6919 1.10583C11.4641 1.10583 12.0919 1.73357 12.0919 2.50583C12.0919 3.27809 11.4641 3.90583 10.6919 3.90583C9.91962 3.90583 9.29187 3.27809 9.29187 2.50583C9.29187 1.73357 9.92197 1.10583 10.6919 1.10583ZM2.50581 8.39711C1.73355 8.39711 1.10581 7.76936 1.10581 6.99713C1.10581 6.22487 1.73355 5.59713 2.50581 5.59713C3.27805 5.59713 3.90581 6.22487 3.90581 6.99713C3.90581 7.76936 3.27568 8.39711 2.50581 8.39711ZM10.6919 12.8942C9.91962 12.8942 9.29187 12.2665 9.29187 11.4942C9.29187 10.7219 9.91962 10.0942 10.6919 10.0942C11.4641 10.0942 12.0919 10.7219 12.0919 11.4942C12.0919 12.2665 11.4641 12.8942 10.6919 12.8942Z" fill="#627A89"/>
<path d="M9.24556 10.1278L4.39221 7.57031L3.78305 8.7263L8.6364 11.2838L9.24556 10.1278Z" fill="#627A89"/>
<path d="M9.22758 3.9939L8.61841 2.83789L3.76506 5.3954L4.37422 6.55141L9.22758 3.9939Z" fill="#627A89"/>
</svg>
