<svg width="107" height="100" viewBox="0 0 107 100" fill="none" xmlns="http://www.w3.org/2000/svg">
<path d="M101.429 48.2143V8.92857C101.429 4.00536 97.4373 0 92.5313 0H14.2356C9.32965 0 5.33835 4.00536 5.33835 8.92857V35.7143C2.39514 35.7143 0 38.1179 0 41.0714V94.6429C0 97.5964 2.39514 100 5.33835 100H44.4862C47.4294 100 49.8246 97.5964 49.8246 94.6429H64.7381C66.4161 94.6429 67.9625 93.875 68.9803 92.5375C69.9982 91.2 70.3291 89.5 69.8878 87.8768L66.3894 75H76.5163V94.6429C76.5163 97.5964 78.9114 100 81.8546 100H101.429C104.372 100 106.767 97.5964 106.767 94.6429V53.5714C106.767 50.6179 104.372 48.2143 101.429 48.2143ZM46.2657 94.6429C46.2657 95.6268 45.4667 96.4286 44.4862 96.4286H5.33835C4.35787 96.4286 3.5589 95.6268 3.5589 94.6429V91.0714H46.2657V94.6429ZM46.2657 87.5H3.5589V48.2143H46.2657V87.5ZM46.2657 44.6429H3.5589V41.0714C3.5589 40.0875 4.35787 39.2857 5.33835 39.2857H44.4862C45.4667 39.2857 46.2657 40.0875 46.2657 41.0714V44.6429ZM66.4553 88.8161C66.603 89.3571 66.4927 89.9232 66.1528 90.3696C65.8129 90.8161 65.2986 91.0714 64.7381 91.0714H49.8246V87.5H66.0976L66.4553 88.8161ZM49.8246 83.9286V75H62.7006L65.1278 83.9286H49.8246ZM76.5163 71.4286H49.8246V60.7143H76.5163V71.4286ZM76.5163 53.5714V57.1429H49.8246V41.0714C49.8246 38.1179 47.4294 35.7143 44.4862 35.7143H8.89724V8.92857C8.89724 5.975 11.2924 3.57143 14.2356 3.57143H92.5313C95.4745 3.57143 97.8697 5.975 97.8697 8.92857V48.2143H81.8546C78.9114 48.2143 76.5163 50.6179 76.5163 53.5714ZM103.208 94.6429C103.208 95.6268 102.409 96.4286 101.429 96.4286H81.8546C80.8742 96.4286 80.0752 95.6268 80.0752 94.6429V91.0714H103.208V94.6429ZM103.208 87.5H80.0752V60.7143H103.208V87.5ZM103.208 57.1429H80.0752V53.5714C80.0752 52.5875 80.8742 51.7857 81.8546 51.7857H101.429C102.409 51.7857 103.208 52.5875 103.208 53.5714V57.1429Z" fill="#333333"/>
<path d="M16.5356 66.5929L9.41772 73.7358L11.9342 76.2612L19.0521 69.1182L16.5356 66.5929Z" fill="#333333"/>
<path d="M37.8885 57.6643L16.5349 79.093L19.0514 81.6184L40.405 60.1896L37.8885 57.6643Z" fill="#333333"/>
<path d="M30.7696 52.31L20.0935 63.0237L22.61 65.549L33.2861 54.8354L30.7696 52.31Z" fill="#333333"/>
<path d="M93.0471 64.8113L84.1515 73.7383L86.668 76.2636L95.5636 67.3367L93.0471 64.8113Z" fill="#333333"/>
<path d="M96.6054 71.9619L87.7097 80.8889L90.2262 83.4143L99.1219 74.4873L96.6054 71.9619Z" fill="#333333"/>
<path d="M57.4609 20.1669L46.7848 30.8806L49.3013 33.406L59.9774 22.6923L57.4609 20.1669Z" fill="#333333"/>
<path d="M73.4769 16.5954L62.8008 27.3091L65.3173 29.8344L75.9934 19.1208L73.4769 16.5954Z" fill="#333333"/>
<path d="M59.2406 30.8824L52.1227 38.0254L54.6392 40.5507L61.7571 33.4078L59.2406 30.8824Z" fill="#333333"/>
<path d="M68.1454 9.45678L61.0099 16.6174L63.5264 19.1428L70.6619 11.9821L68.1454 9.45678Z" fill="#333333"/>
<path d="M16.0151 7.14282H12.4562V10.7143H16.0151V7.14282Z" fill="#333333"/>
<path d="M23.1329 7.14282H19.574V10.7143H23.1329V7.14282Z" fill="#333333"/>
<path d="M30.2507 7.14282H26.6918V10.7143H30.2507V7.14282Z" fill="#333333"/>
</svg>
